<svg width="228" height="267" viewBox="0 0 228 267" fill="none" xmlns="http://www.w3.org/2000/svg">
<g filter="url(#filter0_d_0_236)">
<path d="M188.331 166.098C184.072 161.303 185.207 156.31 188.742 151.2C191.223 147.613 193.096 143.644 196.23 140.507C197.461 139.276 198.979 137.35 199.837 135.846C200.623 134.47 202.234 133.483 202.805 132.053C203.417 130.523 203.784 129.906 201.686 129.906C200.369 129.906 200.248 128.408 200.248 127.438C200.248 123.663 202.899 120.403 203.125 116.562C203.31 113.407 205.008 110.211 205.18 107.286C205.311 105.051 207.234 102.541 207.234 100.294" stroke="black" stroke-width="4" stroke-linecap="round"/>
<path d="M207.234 100.294C208.359 97.0418 210.161 93.0273 210.521 89.601C210.746 87.4671 212.165 85.566 212.165 83.4319C212.165 81.4994 213.363 79.3986 214.129 77.6741C215.027 75.6518 216.192 73.7477 217.097 71.7107C218.632 68.2538 221.617 65.3125 221.617 61.4288C221.617 59.7679 220.427 58.3443 218.535 58.3443C216.168 58.3443 213.761 57.1105 211.343 57.1105C207.591 57.1105 201.784 56.3738 198.695 58.847C197.394 59.8892 195.584 59.775 194.403 60.7205C193.726 61.263 192.059 61.5871 191.207 61.6345C189.998 61.7017 188.754 62.6872 187.531 62.8911C186.683 63.0327 185.728 63.5156 184.837 63.7137C183.461 64.0199 181.685 64.2099 180.362 64.719C178.524 65.4266 176.09 65.7047 174.153 66.1356C171.905 66.6354 168.822 67.3923 166.527 67.3923C164.111 67.3923 161.889 68.2148 159.564 68.2148" stroke="black" stroke-width="4" stroke-linecap="round"/>
<path d="M159.564 68.2149C155.946 68.2149 150.964 69.1749 147.852 66.7526C145.965 65.2838 146.133 63.1603 145.272 61.2233C144.689 59.9103 144.849 58.3676 144.359 57.0191C143.743 55.3227 143.537 53.7546 143.537 51.9696C143.537 49.6931 143.126 47.338 143.126 45.1836C143.126 42.3047 143.126 39.4258 143.126 36.5469C143.126 35.097 142.834 33.2837 143.149 31.863C143.389 30.7827 143.901 29.6396 143.948 28.4128C144.145 23.2871 149.155 19.5677 148.88 14.3382C148.702 10.9647 143.183 7.58606 140.98 5.38158C139.892 4.29292 138.487 2 136.757 2C135.798 2 134.839 2 133.88 2C132.728 2 132.361 3.72535 131.62 4.46764C129.686 6.40334 127.382 7.88111 125.273 9.60854C123.014 11.4585 121.108 13.8713 119.109 15.9833C118.292 16.8457 116.974 18.0427 116.415 19.045C115.821 20.1074 114.394 22.3547 113.31 22.9749C111.593 23.9564 110.856 26.5791 109.018 27.4989" stroke="black" stroke-width="4" stroke-linecap="round"/>
<path d="M109.018 27.499C106.89 28.6263 105.38 30.7256 103.493 32.183C102.381 33.041 100.757 33.7554 99.7713 34.742C97.9185 36.5962 96.4091 38.7791 94.6344 40.6597C91.4941 43.9874 88.5587 47.5171 85.3881 50.6902C84.2035 51.8758 82.5714 52.6185 81.0731 53.5006C79.6358 54.3467 78.6631 56.567 77.3746 57.7276C76.1469 58.8334 74.7058 60.1025 73.2651 60.9035C72.0006 61.6066 71.3488 63.4161 69.9775 64.1023" stroke="black" stroke-width="4" stroke-linecap="round"/>
<path d="M69.9773 64.1021C68.0847 65.5008 66.3861 66.7961 64.7264 68.3062C64.009 68.9588 62.0937 70.7922 61.1191 71.0708C59.5869 71.509 54.5172 70.0761 53.5394 71.2993C52.9475 72.0398 51.6204 72.5479 50.8683 73.15C50.0153 73.833 49.1517 74.792 48.1971 75.2978C46.1737 76.3699 44.4423 77.4966 42.4438 78.4966" stroke="black" stroke-width="4" stroke-linecap="round"/>
<path d="M42.855 78.4968C37.686 80.3226 32.9118 83.8695 28.5631 87.1336C26.8022 88.4553 25.865 90.3037 23.7459 91.2463C21.9953 92.025 20.4438 93.4249 18.8145 94.3308C17.0057 95.3365 16.2061 96.8627 15.4128 98.6492C14.5747 100.536 16.7401 103.097 17.5817 104.613C18.4966 106.261 20.4981 106.726 21.3944 108.52C22.1942 110.121 21.8966 115.656 21.8966 113.866" stroke="black" stroke-width="4" stroke-linecap="round"/>
<path d="M21.8967 113.866C21.8967 120.144 20.41 126.488 19.3397 132.647C18.4812 137.588 17.807 142.498 16.9653 147.453C16.4918 150.241 16.0913 153.226 15.0019 155.816C14.4591 157.106 13.6777 159.838 13.6777 161.162" stroke="black" stroke-width="4" stroke-linecap="round"/>
<path d="M13.6778 161.163C13.6778 167.847 10.1253 174.437 9.54548 181.109C9.33612 183.519 8.32908 185.857 8.01584 188.261C7.6379 191.161 7.80544 195.052 6.60035 197.766C4.41584 202.685 8.65203 204.376 11.9427 206.403C12.8324 206.951 14.7359 207.154 15.3444 207.865C16.0268 208.662 17.786 209.441 18.8146 209.67C21.2552 210.213 23.556 211.63 25.9149 212.48C27.0374 212.885 27.6807 214.292 29.0883 214.605C30.4343 214.905 31.7895 215.176 33.175 215.428C35.4291 215.838 35.024 219.14 36.6909 219.975" stroke="black" stroke-width="4" stroke-linecap="round"/>
<path d="M36.691 219.974C36.691 221.705 37.2619 224.569 36.5996 226.143C35.7801 228.091 36.168 230.408 35.3668 232.313C34.455 234.48 32.9339 238.87 34.2253 241.132C35.1588 242.767 36.6133 242.743 38.1293 243.417C41.0566 244.719 43.7366 246.137 46.5537 247.621C48.6693 248.735 50.5665 249.637 52.8092 250.5C55.283 251.452 57.9465 251.46 60.5031 252.259C64.8315 253.613 70.7808 253.108 75.1374 252.236C80.3232 251.198 84.5363 246.836 89.3836 244.971C93.6244 243.338 96.7145 244.085 101.004 245.039C102.419 245.354 104.697 246.224 105.936 246.913C106.608 247.287 107.453 247.077 108.196 247.118C109.089 247.168 109.714 247.941 110.662 247.941" stroke="black" stroke-width="4" stroke-linecap="round"/>
<path d="M110.662 247.941C113.089 248.135 117.594 248.004 119.702 249.997C120.551 250.799 121.547 251.416 122.579 251.962C123.977 252.703 124.779 255.568 126.278 255.755C127.643 255.926 130.303 257.411 131.62 256.166C133.603 254.292 134.908 252.567 134.908 249.792C134.908 244.212 142.128 252.98 143.515 248.124C144.196 245.738 145.146 243.492 146.003 241.132C146.496 239.776 147.102 238.235 147.875 237.019C148.397 236.199 148.488 234.36 149.291 233.958" stroke="black" stroke-width="4" stroke-linecap="round"/>
<path d="M149.291 233.958C149.291 230.507 150.605 227.541 151.711 224.361C152.822 221.164 153.367 217.894 154.542 214.719C155.244 212.821 156.418 210.947 157.304 209.076C158.261 207.054 160.125 203.843 162.03 202.61C162.559 202.267 164.085 199.786 164.085 199.205C164.085 198.657 164.261 195.752 164.587 195.389C165.935 193.891 167.65 190.429 169.427 189.54" stroke="black" stroke-width="4" stroke-linecap="round"/>
<path d="M169.427 189.541C170.837 187.522 172.305 184.479 174.527 183.172C174.856 182.978 175.571 181.465 175.682 181.078C176.352 178.731 177.446 177.136 179.038 175.189C180.848 172.975 183.059 171.104 185.511 169.605C186.263 169.145 187.235 169.317 187.668 168.536C188.195 167.588 188.257 167.126 188.257 165.984" stroke="black" stroke-width="4" stroke-linecap="round"/>
</g>
<defs>
<filter id="filter0_d_0_236" x="-0.000244141" y="0" width="227.617" height="266.659" filterUnits="userSpaceOnUse" color-interpolation-filters="sRGB">
<feFlood flood-opacity="0" result="BackgroundImageFix"/>
<feColorMatrix in="SourceAlpha" type="matrix" values="0 0 0 0 0 0 0 0 0 0 0 0 0 0 0 0 0 0 127 0" result="hardAlpha"/>
<feOffset dy="4"/>
<feGaussianBlur stdDeviation="2"/>
<feComposite in2="hardAlpha" operator="out"/>
<feColorMatrix type="matrix" values="0 0 0 0 0.231373 0 0 0 0 0.462745 0 0 0 0 0.94902 0 0 0 1 0"/>
<feBlend mode="normal" in2="BackgroundImageFix" result="effect1_dropShadow_0_236"/>
<feBlend mode="normal" in="SourceGraphic" in2="effect1_dropShadow_0_236" result="shape"/>
</filter>
</defs>
</svg>
