<svg width="324" height="196" viewBox="0 0 324 196" fill="none" xmlns="http://www.w3.org/2000/svg">
<g filter="url(#filter0_d_0_193)">
<path d="M303.858 65.9594C303.259 65.9594 302.905 65.4875 302.237 65.6783C301.757 65.8152 302.315 67.1339 301.922 67.4477C301.128 68.0825 301.14 69.8208 299.837 70.11C298.816 70.3367 295.734 70.9914 294.923 69.9777C294.617 69.5957 293.928 69.4013 293.748 68.7706C293.535 68.0265 294.408 67.7906 294.79 67.2988C295.528 66.3513 298.463 65.0809 296.561 64.0246C295.407 63.3837 292.76 63.8758 291.498 63.8758C289.905 63.8758 287.385 64.3462 286.186 63.1482C284.923 61.8856 284.581 59.8582 283.754 58.3692C282.75 56.5643 283.153 51.6719 280.328 51.6719C278.388 51.6719 277.128 50.9728 275.497 49.886C274.231 49.0429 273.227 47.8492 272.154 46.7771C271.189 45.8124 270.177 45.0654 269.242 44.1644C267.7 42.6786 266.397 41.0585 264.907 39.5342C263.569 38.1657 261.88 37.1341 260.373 35.9623C257.864 34.0124 255.522 32.0285 252.993 30.0753C251.897 29.2292 250.463 28.6458 249.22 28.0248C247.541 27.1858 246.188 26.0946 244.587 25.1805C243.53 24.5767 242.725 23.6341 241.675 23.0142C241.031 22.6341 240.385 22.4413 239.822 21.9063C239.12 21.2402 238.158 20.1204 237.141 20.1204" stroke="black" stroke-width="4" stroke-linecap="round"/>
<path d="M237.141 20.1203C236.979 18.6616 233.204 16.4838 232.078 15.3578C229.766 13.0476 227.337 10.5128 225.376 7.89984C223.955 6.00649 221.577 4.9458 220.164 3.08773C218.228 0.541742 218.173 3.10832 217.119 4.27835C216.161 5.34231 214.051 6.06792 214.952 8.04866C215.91 10.1558 216.486 12.9137 217.036 15.2255C217.542 17.3492 217.817 19.642 218.443 21.6747C218.82 22.901 218.022 23.1883 217.417 24.2875C216.685 25.6177 216.115 25.0995 215.1 25.7757" stroke="black" stroke-width="4" stroke-linecap="round"/>
<path d="M215.101 25.7757C213.734 25.7757 212.809 26.8237 211.593 27.1979C210.646 27.4891 209.695 27.6542 208.697 27.8759C206.64 28.3328 204.666 29.3476 202.442 29.3476C200.653 29.3476 199.032 30.783 197.379 31.1501C194.337 31.8255 191.497 30.8438 188.46 30.5548C185.098 30.2347 181.043 28.9965 178.002 27.5617C175.485 26.3738 172.862 25.8599 170.656 24.056C169.462 23.08 167.929 22.5222 166.569 21.7574C164.848 20.7901 163.788 19.1643 162.084 18.2682C161.299 17.855 159.978 17.277 159.271 18.1855C158.713 18.9034 156.987 19.5925 156.723 20.1203" stroke="black" stroke-width="4" stroke-linecap="round"/>
<path d="M156.723 20.1204C156.139 20.1852 154.735 20.8197 154.324 21.1622C153.794 21.6035 152.505 21.6989 151.825 22.0386C149.854 23.0234 147.657 23.6968 145.852 24.8994C144.666 25.6893 143.713 27.8007 142.857 28.9012C141.939 30.0807 141.304 31.5679 140.408 32.6881C140.069 33.1112 140.247 34.2008 139.58 34.3913C138.753 34.6275 138.554 32.2786 138.554 31.7951C138.554 29.6109 137.112 28.4872 136.751 26.5034C136.34 24.2437 134.416 22.3888 133.806 20.2526C133.077 17.7051 131.661 15.2282 130.811 12.679" stroke="black" stroke-width="4" stroke-linecap="round"/>
<path d="M130.811 12.6789C129.912 13.4873 128.64 13.8688 127.601 14.4648C126.785 14.9327 126.236 15.7297 125.449 16.1846C124.438 16.7701 123.511 17.5405 122.537 18.202C121.922 18.6203 121.347 19.0688 120.684 19.4588C120.082 19.8127 119.209 19.9951 118.665 20.4841C117.022 21.9619 112.662 21.0202 110.789 20.3518C108.071 19.3816 105.501 17.4926 102.664 16.8626C101.339 16.5682 99.8629 15.589 98.6601 14.9278C97.4527 14.2642 95.9934 13.9758 94.9205 13.1419C93.5761 12.0969 90.7145 12.0836 89.1125 12.0836C87.4279 12.0836 85.3759 11.7347 83.8671 12.5466C82.8719 13.0821 78.3443 13.984 78.0923 12.9765" stroke="black" stroke-width="4" stroke-linecap="round"/>
<path d="M78.3903 12.3813C75.4768 12.7049 72.3829 16.1744 70.1996 17.8714C67.7839 19.7491 65.0664 21.3974 62.9024 23.56C59.0857 27.3743 53.609 29.1103 49.7973 32.9196C47.2619 35.4535 43.9106 36.6186 41.0605 38.7074C39.1551 40.1039 38.4473 41.6792 37.8835 43.9329" stroke="black" stroke-width="4" stroke-linecap="round"/>
<path d="M38.479 43.6353C36.8654 43.7965 35.2357 45.6832 33.9451 46.6118C32.5995 47.58 31.1673 48.5611 29.9904 49.7372C27.5666 52.1595 23.7782 52.9 21.2702 55.31C19.8518 56.673 17.8726 57.8713 16.2069 58.9811C14.8771 59.867 13.417 61.7192 11.8219 62.0734C10.7958 62.3013 5.69917 65.8022 6.01398 65.9595" stroke="black" stroke-width="4" stroke-linecap="round"/>
<path d="M6.01392 65.9595C6.46168 67.8747 7.20529 69.8595 7.20529 71.8464C7.20529 72.3124 7.12128 72.833 7.35421 73.252C7.91807 74.2664 7.4928 74.8315 8.54559 75.6498C11.0195 77.5727 12.1262 81.0353 14.519 83.1078C16.2351 84.5941 17.7956 86.3327 19.1852 88.1183C20.354 89.6201 22.0739 91.1192 22.991 92.7485C23.6634 93.9432 24.7605 94.962 25.3076 96.2542C25.4732 96.6455 26.5651 98.2378 26.5651 98.1063" stroke="black" stroke-width="4" stroke-linecap="round"/>
<path d="M26.5654 98.1062C28.5029 98.1062 30.4877 98.6052 32.1583 99.5945C33.0529 100.124 34.9021 100.834 35.9475 101.066C37.7187 101.46 37.7224 101.03 36.6259 99.6607C35.7188 98.5274 36.849 96.9038 37.7346 96.1549C40.3912 93.9085 45.2529 93.0991 47.7123 96.1715C48.4464 97.0884 49.5272 94.9928 49.7311 94.5344C49.9119 94.1278 49.9795 93.3428 50.0785 92.8973C50.2431 92.1573 50.7974 92.0208 51.1375 91.409C52.2707 89.3706 47.3129 87.5294 46.2231 86.4976C45.3947 85.7133 44.1555 85.4697 43.4267 84.5794C42.6016 83.5716 41.9516 82.3056 41.59 81.0572C41.4415 80.5443 39.8964 76.8793 40.3324 76.4435C40.6734 76.1028 41.598 76.105 42.0533 76.0797C42.6484 76.0466 43.075 75.4844 43.6915 75.4844C44.6415 75.4844 45.3952 75.5855 46.339 75.782C49.1756 76.3726 52.1986 75.4844 55.0923 75.4844C56.3488 75.4844 57.6012 76.4616 58.8815 76.6585C59.9468 76.8223 61.8836 77.1451 62.6045 77.8656" stroke="black" stroke-width="4" stroke-linecap="round"/>
<path d="M62.6041 77.5679C60.6536 78.5999 58.7495 79.8414 56.5149 80.1806C55.6552 80.3111 54.5037 79.9674 54.8767 81.272C55.0862 82.0049 55.7198 82.5733 55.7537 83.4548C55.8044 84.7724 55.2137 85.9238 54.6947 87.1094C53.9855 88.7294 51.6133 92.2935 55.2904 91.2435C57.3028 90.6689 58.3263 92.7724 59.1955 94.3854C59.3746 94.7179 60.2996 96.9026 60.5192 96.9155C61.1749 96.9541 62.1689 96.7151 62.6041 96.1714C63.872 94.5876 62.3915 92.1989 63.5142 90.5159C65.2374 87.9328 69.3295 88.7362 71.4236 86.3818C73.6739 83.8518 67.952 83.521 66.7905 83.521C65.8305 83.521 64.9717 83.8214 64.5236 82.9257C63.9346 81.7484 63.4225 81.176 63.1336 79.9491C62.7137 78.1654 65.1257 78.5963 66.1782 79.1223C67.2974 79.6815 68.7028 79.1861 69.9013 79.3703C71.3839 79.5983 72.2645 79.9745 73.5582 80.8421C76.1408 82.5741 78.2925 84.7511 79.2172 87.7543C79.7072 89.3458 76.0071 90.0726 76.0071 92.153C76.0071 93.2296 75.4114 94.2636 75.4114 95.2784C75.4114 97.0359 78.0933 96.3047 79.0517 97.5108C80.2137 98.9731 81.4048 101.057 82.9237 102.108C83.1509 102.265 84.8872 104.054 83.8834 104.34C83.3792 104.484 82.4906 104.495 82.2618 104.952" stroke="black" stroke-width="4" stroke-linecap="round"/>
<path d="M82.2622 104.952C84.4277 106.067 84.4992 107.664 84.9428 109.88C85.2048 111.189 85.5385 112.363 85.5385 113.7C85.5385 114.44 85.5244 114.831 86.1342 115.354C87.9184 116.882 90.5015 117.113 92.7198 117.454C96.0273 117.962 99.567 118.196 102.88 118.347C104.365 118.414 105.776 118.875 107.281 118.959C108.537 119.028 109.981 119.076 111.219 119.306C113.608 119.75 116.056 119.386 118.434 119.818C119.653 120.04 121.081 119.835 122.322 119.835C123.465 119.835 123.768 119.624 124.258 118.644" stroke="black" stroke-width="4" stroke-linecap="round"/>
<path d="M124.258 118.645C125.071 123.303 125.82 127.958 126.475 132.634C126.723 134.407 127.203 136.342 127.236 138.124C127.274 140.107 127.64 140.809 128.577 142.474C129.028 143.276 129.724 143.828 130.215 144.607C130.68 145.346 130.707 146.247 130.976 147.054C131.484 148.578 131.895 149.989 132.233 151.552C132.833 154.325 132.951 156.142 134.401 159.886C135.127 161.762 135.205 163.876 136.023 165.691C136.605 166.984 137.065 168.716 137.065 170.139" stroke="black" stroke-width="4" stroke-linecap="round"/>
<path d="M137.065 170.139C138.389 174.725 139.811 179.319 140.656 183.964C140.783 184.661 141.321 185.734 142.013 184.989C144.402 182.418 147.628 180.287 150.319 178.011C153.888 174.993 156.892 171.129 160.595 168.353" stroke="black" stroke-width="4" stroke-linecap="round"/>
<path d="M160.595 168.353C164.228 164.891 168.347 162.094 171.896 158.547C173.638 156.806 175.219 154.866 177.109 153.322C178.274 152.369 179.267 151.054 180.319 149.965C181.018 149.239 182.351 148.343 182.867 147.517C183.971 145.752 183.79 145.167 183.065 143.201C182.019 140.364 180.156 137.82 178.465 135.379C177.383 133.817 175.942 131.199 176.678 129.36C177.91 126.283 183.851 133.54 185.018 134.123C188.785 136.005 191.818 138.488 193.655 142.159" stroke="black" stroke-width="4" stroke-linecap="round"/>
<path d="M193.656 142.159C197.443 142.72 201.26 143.35 205.089 143.35C206.457 143.35 207.187 144.977 207.77 146.012C209.982 149.943 214.309 149.337 218.228 150.642C220.503 151.4 222.939 151.517 225.227 152.279C227.3 152.97 228.966 153.172 231.118 153.172C234.141 153.172 237.071 154.065 240.119 154.065" stroke="black" stroke-width="4" stroke-linecap="round"/>
<path d="M239.524 153.47C241.352 153.47 242.976 153.275 244.653 153.834C245.508 154.119 246.652 154.235 247.549 154.347C250.014 154.655 251.937 156.028 254.267 156.744C255.806 157.218 256.982 157.719 258.52 156.811C259.877 156.009 260.727 154.635 262.028 153.768C263.097 153.056 269.04 149.959 269.59 152.428C269.819 153.458 269.032 155.293 270.202 155.785C271.265 156.233 272.792 155.791 273.362 154.876C274.641 152.824 274.706 150.351 275.695 148.195C275.986 147.562 276.508 147.166 276.754 146.492C277.549 144.318 278.537 142.246 279.303 140.059C279.768 138.73 280.324 137.476 280.924 136.206C281.482 135.026 281.434 132.975 282.711 132.337" stroke="black" stroke-width="4" stroke-linecap="round"/>
<path d="M282.711 132.337C283.876 129.05 285.323 125.923 286.219 122.481C286.715 120.577 286.838 118.334 287.774 116.561C288.205 115.746 288.911 114.988 289.412 114.196C291.017 111.665 293.005 110.087 295.088 108.061C297.11 106.095 299.67 104.673 301.624 102.72C303.142 101.203 303.087 99.6124 304.007 97.9575C304.785 96.5578 303.938 94.0902 304.387 92.5171C304.841 90.9313 304.715 89.5525 304.454 87.9861C304.236 86.6839 302.345 84.633 301.326 83.8189C300.763 83.3689 301.269 82.3306 301.922 82.3306C303.975 82.3306 304.231 80.3566 306.059 79.7675C307.45 79.3189 308.998 80.477 309.815 81.4376C310.484 82.2246 310.113 84.2076 310.113 85.1418C310.113 86.7105 310.296 88.18 310.394 89.7389C310.42 90.1498 310.342 92.6451 311.486 91.3264C312.507 90.1495 312.624 88.8245 312.793 87.3908C312.869 86.744 314.73 86.4772 315.176 86.2663C317.776 85.0356 317.261 83.1146 317.261 80.6108C317.261 79.5132 317.559 78.4735 317.559 77.4193C317.559 76.8563 317.041 76.4639 316.698 76.0798C314.949 74.1216 313.462 72.1427 312.76 69.5645C312.461 68.4645 313.312 67.5522 313.074 66.7202C312.9 66.1115 311.008 67.175 310.774 67.4478C310.175 68.1463 310.182 68.9566 310.096 69.8125C310.002 70.7561 308.751 71.1453 307.895 71.3008C306.307 71.5895 305.347 70.7238 305.347 69.2337C305.347 68.5429 305.385 67.8398 305.347 67.1501C305.295 66.2091 304.431 66.2125 304.156 65.6619" stroke="black" stroke-width="4" stroke-linecap="round"/>
</g>
<defs>
<filter id="filter0_d_0_193" x="0" y="0" width="323.559" height="195.242" filterUnits="userSpaceOnUse" color-interpolation-filters="sRGB">
<feFlood flood-opacity="0" result="BackgroundImageFix"/>
<feColorMatrix in="SourceAlpha" type="matrix" values="0 0 0 0 0 0 0 0 0 0 0 0 0 0 0 0 0 0 127 0" result="hardAlpha"/>
<feOffset dy="4"/>
<feGaussianBlur stdDeviation="2"/>
<feComposite in2="hardAlpha" operator="out"/>
<feColorMatrix type="matrix" values="0 0 0 0 0.231373 0 0 0 0 0.462745 0 0 0 0 0.94902 0 0 0 1 0"/>
<feBlend mode="normal" in2="BackgroundImageFix" result="effect1_dropShadow_0_193"/>
<feBlend mode="normal" in="SourceGraphic" in2="effect1_dropShadow_0_193" result="shape"/>
</filter>
</defs>
</svg>
