<svg width="293" height="240" viewBox="0 0 293 240" fill="none" xmlns="http://www.w3.org/2000/svg">
<g filter="url(#filter0_d_0_269)">
<path d="M198.684 68.2089C198.827 67.5685 200.464 66.8498 201.027 66.5189C201.692 66.1279 202.299 65.4504 202.784 64.8451C203.845 63.5198 205.102 64.3026 205.94 65.3488C206.268 65.7577 205.975 67.1047 206.005 67.6239C206.039 68.1951 207.418 68.9612 207.909 69.0702C208.975 69.307 209.982 65.7292 208.478 65.3001C207.256 64.9514 206.033 64.5643 205.062 63.5938C203.873 62.4062 203.585 61.7737 201.759 61.7737C200.002 61.7737 198.553 60.6939 196.927 60.6036C195.412 60.5196 193.923 59.4336 192.535 59.4336C191.218 59.4336 189.973 57.8493 188.874 57.2397C187.158 56.2874 186.193 54.2676 184.628 53.2258C183.476 52.4587 182.629 50.7089 181.635 49.7157C180.16 48.242 178.951 46.1071 177.747 44.3692C175.841 41.619 173.456 39.2525 171.321 36.7314C170.443 35.6949 169.92 34.3539 169.108 33.2538C168.207 32.0322 167.223 30.9895 166.18 29.8899C165.007 28.6537 163.886 26.9868 162.519 25.9247C161.355 25.0204 160.452 23.1031 159.51 21.9271C158.748 20.9758 157.98 19.7423 157.98 18.4819" stroke="black" stroke-width="4" stroke-linecap="round"/>
<path d="M157.981 18.4823C157.981 14.7692 159.037 7.99561 154.694 6.19678C152.319 5.21312 149.117 6.84452 146.853 5.83926C144.786 4.92176 141.098 5.61176 138.784 5.61176C133.972 5.61176 128.603 4.54395 123.865 5.59551C119.641 6.53318 115.602 8.34933 111.713 10.2919" stroke="black" stroke-width="4" stroke-linecap="round"/>
<path d="M111.713 10.2632C109.799 10.2632 107.605 11.9712 105.714 12.4774C105.141 12.6307 104.377 12.9813 103.79 13.2257C103.226 13.4607 101.917 13.3157 101.508 13.6228C101.176 13.8713 97.79 14.7123 97.644 14.2336C97.1424 12.5889 99.051 11.3999 97.6277 9.98829C96.5598 8.92905 95.0813 8.24358 94.1064 7.10209C93.3119 6.1718 91.7185 5.08271 90.5851 4.55184C89.3067 3.95311 86.8885 3.66613 85.4498 3.66613C85.0958 3.66613 83.9018 3.47979 83.5424 3.33017C82.5982 2.93709 81.7817 3.50161 81.7817 2.29175" stroke="black" stroke-width="4" stroke-linecap="round"/>
<path d="M81.7223 2.29251C80.0911 2.29251 78.5264 2 76.8906 2C75.8086 2 74.6695 2.87754 73.6694 2.87754C72.7706 2.87754 71.7441 3.41223 70.8875 3.46256C70.1968 3.50314 68.2457 3.7016 67.7314 4.11259C66.1421 5.38263 62.9846 4.66351 61.0775 5.51014C60.1624 5.91641 58.7123 6.38768 57.71 6.38768C56.7068 6.38768 55.7489 6.9727 54.7816 6.9727C52.3843 6.9727 50.0436 8.5899 48.1929 10.0278C46.2891 11.5069 44.972 13.4593 43.3611 15.163C41.9656 16.639 40.5736 18.5164 39.5543 20.2982C39.0163 21.2387 38.3596 22.123 37.5695 22.8333C36.9625 23.379 35.7709 24.4765 35.4546 25.1084" stroke="black" stroke-width="4" stroke-linecap="round"/>
<path d="M36.4549 24.3323C35.4518 26.2249 33.8374 27.5046 32.4203 29.0775C31.1404 30.498 30.2033 31.6451 28.1092 31.6451C26.7732 31.6451 23.8683 32.1773 22.8382 32.9776C21.6103 33.9316 20.5501 35.6398 19.1777 36.3253" stroke="black" stroke-width="4" stroke-linecap="round"/>
<path d="M19.1775 36.3252C18.8433 37.6607 16.8874 40.1444 15.8099 41.0054C15.1558 41.5281 14.6926 42.2493 14.0529 42.7605C13.4088 43.2752 12.5553 44.2286 12.1495 44.938C11.7 45.7239 10.5431 46.2653 9.96952 47.0019C8.99568 48.2526 8.26811 50.2498 7.02492 51.2433C6.62361 51.564 6 52.6378 6 53.1446C6 54.1249 7.89754 53.4305 8.34267 53.1446C9.59971 52.3374 11.1354 51.8013 12.2146 50.7233C13.5078 49.4314 14.3563 47.8768 15.5984 46.4981C18.3358 43.46 24.9922 43.4741 28.5482 45.1656C32.8508 47.2121 37.1141 50.9595 40.1151 54.6234C41.9645 56.8813 42.3329 59.311 42.9133 61.92C43.353 63.8963 42.7663 66.0857 43.2061 68.0627C43.6315 69.9749 45.5325 71.7332 45.5325 73.7667C45.5325 75.6352 46.1182 77.2247 46.1182 79.0319C46.1182 80.8543 45.3079 82.2981 45.2397 84.0696C45.162 86.0871 44.4067 87.671 43.7755 89.5623" stroke="black" stroke-width="4" stroke-linecap="round"/>
<path d="M43.7753 89.5625C43.7169 92.0121 42.8323 95.135 44.2308 97.3303C44.8203 98.2556 44.7993 99.0977 45.6787 99.8004C46.0377 100.087 46.9964 101.752 46.9964 102.287C46.9964 103.09 47.8691 104.493 46.8663 105.066C46.0966 105.505 45.1416 105.358 44.2145 105.358C42.4086 105.358 40.8892 104.188 39.2364 104.188C38.3489 104.188 35.1461 101.699 34.6324 102.726C33.8062 104.376 34.4046 107.582 34.4046 109.453C34.4046 113.41 35.2289 117.432 32.9404 120.861" stroke="black" stroke-width="4" stroke-linecap="round"/>
<path d="M33.526 120.276C32.8278 121.758 31.9763 122.917 31.2484 124.371C30.6322 125.602 30.3063 127.221 29.4914 128.239C29.0278 128.818 28.5913 131.195 28.5478 131.977C28.4775 133.24 27.739 134.596 27.6693 135.779C27.5993 136.968 27.3765 138.257 27.3765 139.582C27.3765 140.988 28.2836 142.142 28.9057 143.385C30.1477 145.866 31.4282 149.884 34.8275 148.65C36.1978 148.152 38.2459 147.49 39.5291 148.487C40.7574 149.442 40.9566 151.01 41.4325 152.436C41.8372 153.649 41.8143 155.245 42.4574 156.401C43.2924 157.903 44.1621 159.274 45.3857 160.496C46.4436 161.553 47.2685 162.523 48.0375 163.73C48.935 165.139 48.721 167.069 50.0711 168.118C51.0471 168.876 52.5602 171.513 52.5602 172.798C52.5602 173.891 52.4686 174.098 53.5851 174.098C54.3172 174.098 55.0492 174.098 55.7813 174.098" stroke="black" stroke-width="4" stroke-linecap="round"/>
<path d="M55.7817 174.098C58.3724 174.098 61.0159 173.806 63.5581 173.806C65.109 173.806 66.66 173.806 68.2109 173.806C70.0336 173.806 71.8615 173.221 73.6446 173.221C74.5326 173.221 75.9424 172.834 76.8007 172.571C77.7884 172.267 78.8461 172.244 79.7941 171.823C81.3622 171.127 82.7224 169.803 82.7224 167.955C82.7224 165.863 83.8938 163.76 83.8938 161.666C83.8938 158.837 85.0651 156.027 85.0651 153.151C85.0651 150.365 87.5925 149.724 89.6854 148.357C90.4295 147.871 93.9629 145.034 94.7937 146.602C95.2505 147.464 94.8211 148.385 94.2731 149.088C93.4562 150.138 93.5573 151.332 93.5573 152.599C93.5573 154.952 97.6259 156.112 98.5355 158.156C99.408 160.117 101.401 161.587 102.863 163.048C104.52 164.703 106.273 166.32 108.492 167.305C110.13 168.033 112.346 168.54 114.218 168.54C115.102 168.54 116.238 168.944 117.13 169.142C118.287 169.398 119.455 169.544 120.644 169.727C121.771 169.9 122.975 170.466 124.012 170.588C124.676 170.666 126.671 171.133 127.168 171.531C127.763 172.006 128.646 171.837 129.218 172.408C130.15 173.34 129.39 173.806 128.404 173.806" stroke="black" stroke-width="4" stroke-linecap="round"/>
<path d="M128.404 173.806C128.404 175.336 127.979 176.456 127.819 177.901C127.742 178.589 127.073 180.441 126.647 180.972C124.956 183.084 122.224 183.716 120.791 186.221C120.432 186.848 119.2 187.655 118.594 188.139C117.754 188.81 116.936 190.119 116.463 191.064C115.482 193.023 114.432 194.992 113.47 196.914" stroke="black" stroke-width="4" stroke-linecap="round"/>
<path d="M113.648 196.056C113.648 197.808 112.08 201.286 110.962 202.683C109.934 203.967 109.652 205.793 108.405 207.112C107.235 208.349 106.949 210.782 106.949 212.349C106.949 213.376 106.917 213.763 107.532 214.531C108.117 215.261 109.377 214.849 110.153 215.193C112.374 216.179 115.128 217.295 117.596 217.295C120.728 217.295 124.835 217.424 127.855 218.394C130.653 219.292 133.928 219.538 136.836 219.913C139.755 220.289 142.627 220.811 145.525 221.303C149.832 222.034 154.352 222.382 158.567 223.469C160.711 224.022 163.301 224.309 165.492 224.552C168.412 224.876 171.271 225.125 174.165 225.667C179.385 226.645 184.628 226.19 189.829 227.413C192.2 227.97 194.494 229.223 196.948 229.223C198.422 229.223 198.745 229.206 199.732 228.221C200.59 227.364 201.457 225.88 201.9 224.73C202.6 222.911 203.854 221.292 204.521 219.46C204.879 218.478 205.574 216.902 206.269 216.131C207.977 214.234 208.387 211.46 209.537 209.278C209.99 208.418 211.95 204.031 212.968 203.911C214.677 203.71 216.117 202.338 217.628 201.584" stroke="black" stroke-width="4" stroke-linecap="round"/>
<path d="M217.628 201.002C223.859 198.571 229.123 194.843 234.699 191.239C236.457 190.103 238.052 188.747 239.537 187.263C240.826 185.976 241.441 184.688 242.385 183.19C243.875 180.827 245.414 177.638 246.301 174.979C247.266 172.087 248.833 169.586 249.667 166.671C250.766 162.827 253.806 159.551 255.265 155.842C256.195 153.477 258.173 151.161 259.424 148.94C259.923 148.053 260.639 146.776 261.317 146.014C262.068 145.171 262.334 143.926 263.065 143.105C264.045 142.003 264.252 138.73 265.395 138.159" stroke="black" stroke-width="4" stroke-linecap="round"/>
<path d="M265.395 138.159C266.795 136.195 267.873 134.877 270.2 134.36C270.949 134.194 272.001 133.906 272.676 133.568C275.125 132.345 275.793 130.781 277.482 128.719C278.138 127.919 278.359 126.123 278.566 125.066C278.849 123.627 279.59 122.149 279.666 120.702C279.798 118.201 281.084 115.851 281.43 113.429C281.837 110.587 282.727 107.863 282.87 104.992C283.091 100.591 285.492 96.1544 285.492 91.7377C285.492 90.0547 287.015 87.7634 285.718 86.727C284.586 85.8224 282.429 85.7895 280.977 85.7895C277.588 85.7895 279.666 92.5924 279.666 94.6632C279.666 97.0715 276.855 98.6931 276.754 100.918C276.74 101.229 276.682 105.702 275.297 103.973C274.614 103.12 274.115 102.511 273.857 101.355C273.597 100.186 274.372 97.4272 272.385 97.4272C270.259 97.4272 270.657 100.469 271.948 101.5C272.583 102.008 274.223 104.027 275.006 104.119C276.385 104.281 275.661 107.726 276.608 108.483C277.816 109.448 276.249 115.036 274.278 111.974C273.45 110.687 272.445 109.875 272.385 108.257C272.349 107.298 271.16 106.09 270.346 105.638C267.69 104.164 265.419 101.928 262.757 100.466C260.303 99.1174 258.696 96.0169 258.696 93.2893C258.696 91.6935 259.991 91.7364 260.864 90.8648C261.636 90.094 260.837 87.2211 260.443 86.5331C259.354 84.6283 255.174 86.1554 253.679 86.5977C252.664 86.8981 243.517 82.9844 247.045 87.3897C247.516 87.9771 248.235 87.9804 248.728 88.4727C249.493 89.2366 248.793 90.1158 248.793 91.0265C248.793 92.3679 249.288 95.0996 247.191 95.0996C245.195 95.0996 246.04 99.4637 244.068 99.4637C243.222 99.4637 242.088 99.7475 241.511 99.0273C241.046 98.4468 240.122 97.5694 240.799 96.6998C241.244 96.1285 242.267 95.9068 241.22 95.3259C238.875 94.0243 237.619 97.3025 235.686 96.4897C234.406 95.9512 233.022 95.7725 231.754 96.425C230.142 97.2547 229.001 97.4412 227.676 96.1179C225.399 93.8426 222.962 93.099 220.249 91.673C217.56 90.2589 218.182 86.6334 215.168 85.7734C214.255 85.5127 211.803 82.8708 211.803 82.0073" stroke="black" stroke-width="4" stroke-linecap="round"/>
<path d="M211.803 82.007C210.821 80.7756 208.536 76.4792 206.56 76.4792C206.172 76.4792 205.783 76.4792 205.395 76.4792C204.538 76.4792 203.458 76.6773 202.709 76.1882C200.881 74.9944 200.115 74.7841 197.984 75.7518C196.645 76.3599 195.754 76.4792 194.165 76.4792C192.007 76.4792 191.007 74.9828 189.667 73.5698C188.756 72.6094 188.728 71.0261 188.793 69.7875C188.891 67.9305 191.184 66.9131 192.725 66.571C193.603 66.3761 195.401 65.3167 196.269 65.779C197.186 66.2676 197.349 68.3328 197.968 68.3328C198.849 68.3328 198.696 67.9416 198.696 67.1691" stroke="black" stroke-width="4" stroke-linecap="round"/>
</g>
<defs>
<filter id="filter0_d_0_269" x="0" y="0" width="292.24" height="239.223" filterUnits="userSpaceOnUse" color-interpolation-filters="sRGB">
<feFlood flood-opacity="0" result="BackgroundImageFix"/>
<feColorMatrix in="SourceAlpha" type="matrix" values="0 0 0 0 0 0 0 0 0 0 0 0 0 0 0 0 0 0 127 0" result="hardAlpha"/>
<feOffset dy="4"/>
<feGaussianBlur stdDeviation="2"/>
<feComposite in2="hardAlpha" operator="out"/>
<feColorMatrix type="matrix" values="0 0 0 0 0.231373 0 0 0 0 0.462745 0 0 0 0 0.94902 0 0 0 1 0"/>
<feBlend mode="normal" in2="BackgroundImageFix" result="effect1_dropShadow_0_269"/>
<feBlend mode="normal" in="SourceGraphic" in2="effect1_dropShadow_0_269" result="shape"/>
</filter>
</defs>
</svg>
